<svg width="18" height="11" viewBox="0 0 18 11" fill="none" xmlns="http://www.w3.org/2000/svg">
<path d="M15.7288 11C15.0469 11 14.4946 10.4476 14.4946 9.76575V1.23332C14.4946 0.552359 15.0469 0 15.7288 0H16.345C17.0269 0 17.5793 0.552359 17.5793 1.23332V9.76575C17.5793 10.4476 17.0269 11 16.345 11H15.7288ZM10.8964 11C10.2154 11 9.66304 10.4476 9.66304 9.76575V3.7009C9.66304 3.01901 10.2154 2.46665 10.8964 2.46665H11.5135C12.1945 2.46665 12.7468 3.01901 12.7468 3.7009V9.76575C12.7468 10.4476 12.1945 11 11.5135 11H10.8964ZM6.16754 11C5.48659 11 4.93424 10.4476 4.93424 9.76575V6.06485C4.93424 5.38388 5.48659 4.83152 6.16754 4.83152H6.78467C7.46565 4.83152 8.01801 5.38388 8.01801 6.06485V9.76575C8.01801 10.4476 7.46565 11 6.78467 11H6.16754ZM1.23333 11C0.552351 11 0 10.4476 0 9.76575V8.12162C0 7.43973 0.552351 6.88737 1.23333 6.88737H1.85044C2.53142 6.88737 3.08377 7.43973 3.08377 8.12162V9.76575C3.08377 10.4476 2.53142 11 1.85044 11H1.23333Z" fill="#1E1E2D"/>
</svg>
