<svg width="18" height="18" viewBox="0 0 18 18" fill="none" xmlns="http://www.w3.org/2000/svg">
<path fill-rule="evenodd" clip-rule="evenodd" d="M11.9289 0.895122L12.5286 1.09467C13.0779 1.27776 13.4492 1.79206 13.4492 2.37117V3.23211C13.4492 3.96447 14.0335 4.56209 14.7658 4.57752L15.6278 4.59604C16.1267 4.60632 16.5793 4.8933 16.8025 5.33972L17.0853 5.90545C17.3446 6.42387 17.2427 7.04926 16.8333 7.45864L16.2244 8.06758C15.707 8.58496 15.6977 9.42122 16.2038 9.94992L16.8004 10.5733C17.146 10.9343 17.2633 11.4558 17.1049 11.93L16.9053 12.5297C16.7222 13.0789 16.2079 13.4503 15.6288 13.4503H14.7679C14.0355 13.4503 13.4379 14.0345 13.4225 14.7669L13.4039 15.6288C13.3937 16.1277 13.1067 16.5803 12.6603 16.8035L12.0946 17.0864C11.5761 17.3456 10.9507 17.2437 10.5414 16.8344L9.93241 16.2254C9.41503 15.708 8.57879 15.6988 8.05008 16.2049L7.42673 16.8014C7.0657 17.1471 6.54421 17.2643 6.07003 17.1059L5.47035 16.9064C4.92108 16.7233 4.54973 16.209 4.54973 15.6299V14.7689C4.54973 14.0366 3.96549 13.4389 3.23311 13.4235L2.37116 13.405C1.87227 13.3947 1.41969 13.1077 1.1965 12.6613L0.913639 12.0956C0.654416 11.5772 0.756247 10.9518 1.16564 10.5424L1.77455 9.93346C2.29196 9.41607 2.30122 8.57982 1.79515 8.05112L1.19854 7.42778C0.851894 7.06571 0.734651 6.54318 0.893047 6.07003L1.0926 5.47035C1.2757 4.92108 1.79 4.54975 2.36909 4.54975H3.23004C3.96241 4.54975 4.56002 3.9655 4.57547 3.23314L4.59395 2.37117C4.60632 1.87229 4.89226 1.41971 5.33866 1.1965L5.90441 0.913637C6.42283 0.654428 7.04822 0.75626 7.45762 1.16564L8.06653 1.77458C8.58391 2.29197 9.42018 2.30122 9.94889 1.79515L10.5722 1.19856C10.9333 0.853977 11.4558 0.736716 11.9289 0.895122Z" stroke="#4B5B98" stroke-width="1.5" stroke-linecap="round" stroke-linejoin="round"/>
</svg>
