<svg width="42" height="11" viewBox="0 0 42 11" fill="none" xmlns="http://www.w3.org/2000/svg">
<path d="M4.74896 2.26429H5.69192C5.64865 1.04962 4.52857 0.141491 2.97175 0.141491C1.43103 0.141491 0.220385 1.03775 0.220385 2.39008C0.220385 3.47503 1.00635 4.11979 2.26429 4.48138L3.25454 4.76446C4.1039 5.00025 4.85866 5.29903 4.85866 6.101C4.85866 6.98155 4.00931 7.56332 2.89326 7.56332C1.9342 7.56332 1.08485 7.13874 1.00635 6.22679H0C0.094591 7.54762 1.16335 8.44388 2.89326 8.44388C4.74896 8.44388 5.80159 7.42183 5.80159 6.11669C5.80159 4.60717 4.37158 4.11979 3.5373 3.89961L2.72017 3.67942C2.1224 3.52222 1.16335 3.20774 1.16335 2.34288C1.16335 1.57242 1.87081 1.00635 2.94055 1.00635C3.91469 1.00635 4.65437 1.47018 4.74896 2.26429ZM9.8109 8.42818C11.0376 8.42818 11.9333 7.81491 12.2171 6.90296L11.3204 6.65137C11.0849 7.28034 10.5385 7.59482 9.8109 7.59482C8.72203 7.59482 7.97129 6.89118 7.92802 5.59782H12.3107V5.20474C12.3107 2.95615 10.9742 2.18569 9.71631 2.18569C8.08099 2.18569 6.99614 3.47503 6.99614 5.33054C6.99614 7.18594 8.06588 8.42818 9.8109 8.42818ZM7.92802 4.79586C7.99042 3.85633 8.65462 3.01905 9.71631 3.01905C10.7227 3.01905 11.3677 3.77381 11.3677 4.79586H7.92802ZM16.3481 2.26429H15.059V0.817659H14.1312V2.26429H13.2194V3.05045H14.1312V6.82426C14.1312 7.87781 14.9805 8.38098 15.7665 8.38098C16.1127 8.38098 16.3321 8.31808 16.4579 8.27089L16.2697 7.43753C16.1912 7.45323 16.0654 7.48473 15.8611 7.48473C15.4515 7.48473 15.059 7.35893 15.059 6.57267V3.05045H16.3481V2.26429ZM20.3695 2.26429H19.0804V0.817659H18.1525V2.26429H17.2408V3.05045H18.1525V6.82426C18.1525 7.87781 19.0019 8.38098 19.7879 8.38098C20.134 8.38098 20.3534 8.31808 20.4792 8.27089L20.291 7.43753C20.2125 7.45323 20.0867 7.48473 19.8824 7.48473C19.4729 7.48473 19.0804 7.35893 19.0804 6.57267V3.05045H20.3695V2.26429ZM21.7653 8.30239H22.6932V2.26429H21.7653V8.30239ZM22.2373 1.25794C22.5986 1.25794 22.8975 0.974951 22.8975 0.628969C22.8975 0.283086 22.5986 0 22.2373 0C21.875 0 21.5761 0.283086 21.5761 0.628969C21.5761 0.974951 21.875 1.25794 22.2373 1.25794ZM25.3198 4.67007C25.3198 3.61652 25.9719 3.01905 26.8605 3.01905C27.7219 3.01905 28.2442 3.5812 28.2442 4.52857V8.30239H29.1721V4.46568C29.1721 2.92465 28.3509 2.18569 27.1282 2.18569C26.2164 2.18569 25.6499 2.59447 25.3671 3.20774H25.2886V2.26429H24.3919V8.30239H25.3198V4.67007ZM33.3052 10.6925C34.7513 10.6925 35.9146 10.0321 35.9146 8.47538V2.26429H35.019V3.22344H34.9244C34.7201 2.90895 34.3427 2.18569 33.1633 2.18569C31.6376 2.18569 30.584 3.39643 30.584 5.25184C30.584 7.13874 31.6849 8.20799 33.1471 8.20799C34.3266 8.20799 34.704 7.51623 34.9083 7.18594H34.9868V8.41248C34.9868 9.41883 34.2793 9.87481 33.3052 9.87481C32.2082 9.87481 31.8228 9.29696 31.5752 8.96285L30.8356 9.48173C31.2129 10.1146 31.9566 10.6925 33.3052 10.6925ZM33.2729 7.37463C32.1096 7.37463 31.5118 6.49408 31.5118 5.23614C31.5118 4.0097 32.0935 3.01905 33.2729 3.01905C34.4051 3.01905 35.0028 3.931 35.0028 5.23614C35.0028 6.57267 34.39 7.37463 33.2729 7.37463ZM41.8903 3.61652C41.5995 2.75961 40.9464 2.18569 39.7518 2.18569C38.4778 2.18569 37.5348 2.90895 37.5348 3.931C37.5348 4.76446 38.03 5.32269 39.1379 5.58212L40.1443 5.81791C40.7542 5.95951 41.0409 6.25034 41.0409 6.66707C41.0409 7.18594 40.4905 7.61052 39.626 7.61052C38.8673 7.61052 38.3912 7.28426 38.2262 6.63557L37.3456 6.85576C37.562 7.88173 38.4074 8.42818 39.6411 8.42818C41.045 8.42818 42 7.66164 42 6.61987C42 5.77866 41.4737 5.24792 40.3959 4.98455L39.5002 4.76446C38.7847 4.58755 38.4627 4.34773 38.4627 3.88391C38.4627 3.36493 39.0122 2.98755 39.7518 2.98755C40.5619 2.98755 40.896 3.43578 41.0571 3.85241L41.8903 3.61652Z" fill="#4B5B98"/>
</svg>
