<svg width="15" height="13" viewBox="0 0 15 13" fill="none" xmlns="http://www.w3.org/2000/svg">
<path d="M2.32448 4.82951C2.32448 2.52263 4.1945 0.653526 6.50046 0.653526H8.17141C10.4783 0.653526 12.3474 2.52355 12.3474 4.82951V7.40736C12.3474 7.89583 12.5419 8.36495 12.8875 8.71056L13.4783 9.30134C13.8239 9.64696 14.0183 10.1161 14.0183 10.6045C14.0183 11.5667 13.2386 12.3465 12.2764 12.3465H2.39545C1.43325 12.3465 0.653533 11.5667 0.653533 10.6045C0.653533 10.1161 0.848001 9.64696 1.19362 9.30134L1.78439 8.71056C2.13001 8.36495 2.32448 7.89583 2.32448 7.40736V4.82951Z" stroke="#1E1E2D" stroke-width="1.3" stroke-linecap="round" stroke-linejoin="round"/>
</svg>
