<svg width="25" height="12" viewBox="0 0 25 12" fill="none" xmlns="http://www.w3.org/2000/svg">
<path d="M3.66245 11.735C2.40611 11.735 1.93502 11.6064 1.46112 11.353C0.995505 11.1041 0.631813 10.7404 0.381099 10.2729C0.128549 9.79998 0 9.32977 0 8.0716V3.66248C0 2.40431 0.128549 1.9341 0.381099 1.46114C0.63091 0.9946 0.994601 0.630923 1.46112 0.381125C1.93408 0.128572 2.40431 0 3.66245 0H18.7863C20.0444 0 20.5147 0.128572 20.9876 0.381125C21.4551 0.631842 21.8187 0.995518 22.0676 1.46114C22.3202 1.9341 22.4487 2.40431 22.4487 3.66248V8.0716C22.4487 9.32977 22.3202 9.79998 22.0676 10.2729C21.8178 10.7404 21.4541 11.1032 20.9876 11.353C20.5138 11.6064 20.0426 11.735 18.7863 11.735H3.66245ZM1.94234 1.28113C1.65675 1.4345 1.43449 1.65675 1.28113 1.94236C1.07909 2.32165 1.02029 2.70829 1.02029 3.66248V8.0716C1.02029 9.02763 1.07909 9.41335 1.28113 9.79172C1.4354 10.0783 1.65765 10.3014 1.94234 10.4529C2.32163 10.6559 2.70737 10.7147 3.66245 10.7147H18.7863C19.7423 10.7147 20.128 10.6559 20.5064 10.4529C20.7911 10.3014 21.0133 10.0783 21.1676 9.79172C21.3697 9.41335 21.4284 9.02763 21.4284 8.0716V3.66248C21.4284 2.70829 21.3697 2.32165 21.1676 1.94236C21.0142 1.65675 20.792 1.4345 20.5064 1.28113C20.128 1.07909 19.7423 1.02031 18.7863 1.02031H3.66245C2.70737 1.02031 2.32163 1.07909 1.94234 1.28113ZM23.4691 3.76534C23.4691 3.76534 25 4.54412 25 5.80597C25 7.06782 23.4691 7.8466 23.4691 7.8466V3.76534Z" fill="#A2A2A7"/>
</svg>
