<svg width="16" height="3" viewBox="0 0 16 3" fill="none" xmlns="http://www.w3.org/2000/svg">
<path d="M5.42669 2.91024C5.68671 2.91024 5.94673 2.81023 6.13675 2.61021C6.22946 2.51769 6.30301 2.40779 6.3532 2.28681C6.40338 2.16583 6.42922 2.03613 6.42922 1.90516C6.42922 1.77418 6.40338 1.64448 6.3532 1.5235C6.30301 1.40251 6.22946 1.29262 6.13675 1.2001C5.35668 0.430032 4.3166 0 3.21651 0C2.11642 0 1.07633 0.430032 0.296268 1.2001C0.202468 1.292 0.127949 1.4017 0.0770766 1.52277C0.0262039 1.64384 0 1.77383 0 1.90516C0 2.03648 0.0262039 2.16647 0.0770766 2.28754C0.127949 2.40861 0.202468 2.51831 0.296268 2.61021C0.6863 3.00024 1.31635 3.01024 1.70639 2.61021C2.51645 1.81015 3.91657 1.81015 4.72663 2.61021C4.91665 2.80023 5.17667 2.90024 5.42669 2.90024V2.91024ZM11.2772 2.62021C12.0872 1.82015 13.4873 1.82015 14.2974 2.62021C14.3903 2.71275 14.5007 2.78595 14.622 2.83559C14.7434 2.88522 14.8734 2.91029 15.0046 2.90936C15.1357 2.90843 15.2653 2.88152 15.386 2.83017C15.5067 2.77882 15.6159 2.70406 15.7075 2.61021C15.8002 2.51769 15.8738 2.40779 15.924 2.28681C15.9742 2.16583 16 2.03613 16 1.90516C16 1.77418 15.9742 1.64448 15.924 1.5235C15.8738 1.40251 15.8002 1.29262 15.7075 1.2001C14.9275 0.430032 13.8874 0 12.7873 0C11.6872 0 10.6471 0.430032 9.86705 1.2001C9.77325 1.292 9.69873 1.4017 9.64786 1.52277C9.59699 1.64384 9.57078 1.77383 9.57078 1.90516C9.57078 2.03648 9.59699 2.16647 9.64786 2.28754C9.69873 2.40861 9.77325 2.51831 9.86705 2.61021C10.2571 3.00024 10.8871 3.01024 11.2772 2.61021V2.62021Z" fill="#FFFCFC"/>
</svg>
