<svg width="20" height="6" viewBox="0 0 20 6" fill="none" xmlns="http://www.w3.org/2000/svg">
<path d="M2.87902 0C1.29658 0 0 1.29658 0 2.87902C0 4.46146 1.28637 5.74783 2.87902 5.74783C4.47167 5.74783 5.75804 4.46146 5.75804 2.87902C5.75804 1.29658 4.47167 0 2.87902 0ZM2.87902 3.70597C2.42981 3.70597 2.04186 3.32823 2.04186 2.87902C2.04186 2.42981 2.4196 2.04186 2.87902 2.04186C3.33844 2.04186 3.71618 2.42981 3.71618 2.87902C3.71618 3.32823 3.33844 3.70597 2.87902 3.70597ZM10.0051 0C8.42267 0 7.12609 1.29658 7.12609 2.87902C7.12609 4.46146 8.41246 5.74783 10.0051 5.74783C11.5978 5.74783 12.8841 4.46146 12.8841 2.87902C12.8841 1.29658 11.5978 0 10.0051 0ZM10.0051 3.70597C9.5559 3.70597 9.16794 3.32823 9.16794 2.87902C9.16794 2.42981 9.54569 2.04186 10.0051 2.04186C10.4645 2.04186 10.8423 2.42981 10.8423 2.87902C10.8423 3.32823 10.4645 3.70597 10.0051 3.70597ZM17.121 0C15.5385 0 14.242 1.29658 14.242 2.87902C14.242 4.46146 15.5283 5.74783 17.121 5.74783C18.7136 5.74783 20 4.46146 20 2.87902C20 1.29658 18.7136 0 17.121 0ZM17.121 3.70597C16.6718 3.70597 16.2838 3.32823 16.2838 2.87902C16.2838 2.42981 16.6616 2.04186 17.121 2.04186C17.5804 2.04186 17.9581 2.42981 17.9581 2.87902C17.9581 3.32823 17.5804 3.70597 17.121 3.70597Z" fill="#FFFCFC"/>
</svg>
