<svg width="56" height="50" viewBox="0 0 56 50" fill="none" xmlns="http://www.w3.org/2000/svg">
<path d="M47.9886 0H36.3565C31.9257 0 28.3151 3.61065 28.3151 8.04144C28.3151 12.1322 31.3956 15.4728 35.3563 15.9729V24.9244C33.7894 23.0445 31.7015 21.67 29.3552 20.9737V19.3235C29.3552 17.6732 28.015 16.3329 26.3647 16.3329H16.3429C14.6926 16.3329 13.3524 17.6732 13.3524 19.3235V21.0138C10.972 21.7339 8.90159 23.1241 7.35131 24.9745V13.9425C7.35131 12.5122 6.1811 11.342 4.75085 11.342C3.32059 11.342 2.15038 12.5122 2.15038 13.9425V29.2952C0.910163 29.7153 0 30.8655 0 32.2458V38.3568C0 39.1924 0.331933 39.9938 0.922778 40.5846C1.51362 41.1755 2.31498 41.5074 3.15056 41.5074H5.32095C7.19128 46.3583 11.8721 49.8289 17.3831 49.8289H25.3045C29.1852 49.8289 32.6258 48.0786 35.0063 45.3681H37.6967C39.267 45.3681 40.5372 44.0979 40.5372 42.5276V41.3074C41.7775 40.8873 42.6876 39.7371 42.6876 38.3568V32.2458C42.6876 30.8655 41.7775 29.7253 40.5372 29.2952V16.0729H42.0275V16.953C42.0273 17.288 42.119 17.6166 42.2927 17.9031C42.4663 18.1895 42.7152 18.4228 43.0123 18.5776C43.3094 18.7323 43.6433 18.8025 43.9776 18.7806C44.3118 18.7587 44.6337 18.6455 44.908 18.4533L48.2886 16.0729C52.5694 15.9028 56 12.3622 56 8.05144C56 3.74067 52.3894 0.0100015 47.9586 0.0100015L47.9886 0ZM15.3627 19.3235C15.3627 18.7634 15.7928 18.3333 16.3529 18.3333H26.3747C26.9248 18.3333 27.3649 18.7734 27.3649 19.3235V20.5637C26.8748 20.5037 26.3847 20.4136 25.8846 20.4136H17.033C16.4629 20.4136 15.9228 20.5037 15.3727 20.5837V19.3235H15.3627ZM17.023 22.414H25.8746C31.6056 22.414 36.2765 27.0848 36.2765 32.8159V36.8766C36.2765 37.1066 36.2265 37.3267 36.2065 37.5667C35.8764 37.4367 35.6064 37.1666 35.6064 36.7966C35.6064 30.6255 30.5855 25.6046 24.4144 25.6046H18.3033C12.1322 25.6046 7.11127 30.6255 7.11127 36.7966C7.11127 37.1666 6.84122 37.4267 6.51116 37.5667C6.50116 37.3367 6.44115 37.1166 6.44115 36.8766V32.8159C6.44115 27.0848 11.182 22.414 17.013 22.414H17.023ZM4.77085 13.3424C5.10091 13.3424 5.37096 13.6024 5.37096 13.9425V28.225C5.26094 28.5051 5.19093 28.8051 5.10091 29.0952H4.18075V13.9425C4.18075 13.6024 4.44079 13.3424 4.78085 13.3424H4.77085ZM3.17057 39.5071C2.54045 39.5071 2.02036 38.987 2.02036 38.3568V32.2458C2.02036 31.6156 2.53045 31.0956 3.17057 31.0956H4.62083C4.54081 31.6657 4.44079 32.2258 4.44079 32.8159V36.8766C4.44079 37.1466 4.63083 39.127 4.71084 39.5071H3.16056H3.17057ZM25.3245 47.8285H17.4031C12.2922 47.8285 8.03144 44.2979 6.82122 39.5671C8.12145 39.287 9.11163 38.1768 9.11163 36.7966C9.11163 31.7257 13.2324 27.6049 18.3033 27.6049H24.4144C29.4853 27.6049 33.606 31.7257 33.606 36.7966C33.606 38.1768 34.5962 39.277 35.8964 39.5671C35.5363 40.9673 34.9262 42.2475 34.0861 43.3677H25.5646C25.3709 42.9206 25.0511 42.5396 24.6443 42.2714C24.2376 42.0032 23.7614 41.8593 23.2742 41.8575H19.4435C18.0632 41.8575 16.933 42.9877 16.933 44.3679C16.933 45.7482 18.0532 46.8784 19.4435 46.8784H23.2742C24.3043 46.8784 25.1845 46.2583 25.5646 45.3681H32.1457C30.2654 46.8784 27.915 47.8285 25.3145 47.8285H25.3245ZM23.7842 44.3679C23.7856 44.4353 23.7733 44.5022 23.7482 44.5647C23.723 44.6272 23.6855 44.684 23.6379 44.7316C23.5902 44.7793 23.5335 44.8168 23.471 44.842C23.4085 44.8671 23.3415 44.8794 23.2742 44.878H19.4435C19.1534 44.878 18.9334 44.658 18.9334 44.3679C18.9334 44.0779 19.1634 43.8578 19.4435 43.8578H23.2742C23.5542 43.8578 23.7842 44.0879 23.7842 44.3679ZM37.7167 43.3677H36.4665C36.8166 42.7676 37.1366 42.1575 37.3867 41.5074H38.5569V42.5276C38.5569 42.9877 38.1768 43.3677 37.7167 43.3677ZM40.7073 38.3568C40.7073 38.987 40.1972 39.5071 39.5571 39.5071H38.0068C38.0868 39.107 38.2768 37.1666 38.2768 36.8766V32.8159C38.2768 32.2258 38.1868 31.6657 38.1068 31.0956H39.5571C40.1872 31.0956 40.7073 31.6156 40.7073 32.2458V38.3568ZM38.5569 29.0952H37.6467C37.5467 28.7951 37.4867 28.4751 37.3667 28.185V16.0729H38.5569V29.0952ZM47.9986 14.0725C47.7885 14.0725 47.5885 14.1325 47.4185 14.2525L44.0479 16.623V15.0627C44.0479 14.5126 43.5978 14.0625 43.0477 14.0625H36.3565C33.0259 14.0625 30.3154 11.352 30.3154 8.03143C30.3154 4.71084 33.0259 1.99036 36.3565 1.99036H47.9886C51.3192 1.99036 54.0297 4.70084 54.0297 8.03143C54.0297 11.362 51.3192 14.0625 47.9886 14.0625L47.9986 14.0725Z" fill="#FFFCFC"/>
</svg>
