<svg width="16" height="12" viewBox="0 0 16 12" fill="none" xmlns="http://www.w3.org/2000/svg">
<path d="M8.00045 11.4878C7.91338 11.4878 7.82885 11.4527 7.76855 11.3915L5.67587 9.27918C5.61163 9.21588 5.57583 9.12794 5.5777 9.03794C5.57954 8.94757 5.61905 8.86099 5.68614 8.80043C6.33239 8.25366 7.15445 7.95256 8.00093 7.95256C8.8474 7.95256 9.66947 8.25367 10.3157 8.80043C10.3827 8.86095 10.4223 8.94751 10.4242 9.03794C10.426 9.12825 10.3899 9.21619 10.325 9.27918L8.23331 11.3915C8.17116 11.4536 8.08847 11.4878 8.00045 11.4878ZM11.6758 7.78181C11.5921 7.7818 11.5126 7.75003 11.4518 7.69237C10.5044 6.83492 9.27868 6.36269 8.00045 6.36269C6.72403 6.36269 5.49932 6.83492 4.55192 7.69237C4.49162 7.75003 4.41219 7.7818 4.3283 7.78181C4.24136 7.78181 4.15971 7.74806 4.09839 7.68676L2.88843 6.46462C2.82511 6.40039 2.78931 6.31245 2.79023 6.22336C2.79115 6.13379 2.82863 6.04655 2.89309 5.98399C4.28556 4.68831 6.09988 3.97476 8.00188 3.97476C9.90384 3.97476 11.7182 4.68831 13.1106 5.98399C13.1751 6.04656 13.2126 6.1338 13.2135 6.22336C13.2144 6.3124 13.1786 6.40034 13.1153 6.46462L11.9053 7.68676C11.844 7.74806 11.7625 7.78181 11.6758 7.78181ZM1.53838 4.96922C1.45189 4.96922 1.37046 4.93542 1.30908 4.87406L0.0981643 3.65192C0.0348775 3.58861 0 3.50358 0 3.41253C0.000919497 3.32331 0.0377311 3.23641 0.100986 3.1741C2.23695 1.12725 5.04237 0 8.00045 0C10.9586 0 13.764 1.12725 15.8999 3.1741C15.9635 3.23673 16 3.32363 16 3.41253C16.0009 3.501 15.9655 3.58827 15.9027 3.65192L14.6909 4.87406C14.63 4.93542 14.5487 4.96921 14.4621 4.96921C14.3775 4.96921 14.2977 4.93675 14.2374 4.8778C12.5478 3.27084 10.3328 2.38583 8.00045 2.38583C5.66816 2.38583 3.45316 3.27084 1.76353 4.8778C1.70281 4.93674 1.62285 4.96921 1.53838 4.96922Z" fill="#1E1E2D"/>
</svg>
